<svg xmlns="http://www.w3.org/2000/svg" width="73.056" height="53.175"><path d="M65.121 0H7.935A7.688 7.688 0 000 7.4v38.382a7.688 7.688 0 007.935 7.4h57.186a7.688 7.688 0 007.935-7.4V7.4A7.688 7.688 0 0065.121 0zm1.215 25.588h-17.3v-7.53a1.177 1.177 0 011.215-1.133h16.085zm-17.3 2h17.3v8.663h-17.3zm19.443-5.331h2.43v8.663h-2.43zm0-2v-8.663h2.43v8.663zm-2.145-5.331H50.253a3.255 3.255 0 00-3.36 3.132v28.853h-20.73V6.264h38.958A1.177 1.177 0 0166.336 7.4zM24.018 25.588H6.719v-8.663h17.3zM4.575 30.919H2.144v-8.663h2.43zm2.144-3.332h17.3v8.663h-17.3zM37.6 4.265V2h19.587v2.266zm-2.145 0H15.869V2h19.587zm-11.437 2v8.663H6.719V7.4a1.177 1.177 0 011.215-1.133zM4.575 20.257H2.144v-8.663h2.43zM2.144 32.918h2.43v8.662h-2.43zm4.575 5.331h17.3v8.663H7.935a1.178 1.178 0 01-1.215-1.133zM35.456 48.91v2.266H15.869V48.91zm2.145 0h19.586v2.266H37.6zm11.437-2v-8.662h17.3v7.53a1.177 1.177 0 01-1.215 1.133zm19.443-13.992h2.43v8.662h-2.43zM70.911 7.4v2.2h-2.43V7.4a3.255 3.255 0 00-3.36-3.132h-5.79V2h5.79a5.61 5.61 0 015.79 5.4zM7.935 2h5.79v2.266h-5.79A3.255 3.255 0 004.575 7.4v2.2H2.144V7.4A5.61 5.61 0 017.935 2zm-5.79 43.779v-2.2h2.43v2.2a3.255 3.255 0 003.36 3.132h5.79v2.266h-5.79a5.61 5.61 0 01-5.791-5.399zm62.977 5.4h-5.79V48.91h5.79a3.255 3.255 0 003.36-3.132v-2.2h2.43v2.2a5.61 5.61 0 01-5.791 5.398z" fill="#fff" opacity=".3"/></svg>