<svg xmlns="http://www.w3.org/2000/svg" width="290.239" height="95.05"><defs><filter id="a" x=".378" y="0" width="289.861" height="19.05" filterUnits="userSpaceOnUse"><feOffset dx="2" dy="2"/><feGaussianBlur result="b"/><feFlood flood-opacity=".161"/><feComposite operator="in" in2="b"/><feComposite in="SourceGraphic"/></filter><filter id="b" x="0" y="76" width="227.505" height="19.05" filterUnits="userSpaceOnUse"><feOffset dx="2" dy="2"/><feGaussianBlur result="d"/><feFlood flood-opacity=".161"/><feComposite operator="in" in2="d"/><feComposite in="SourceGraphic"/></filter></defs><g filter="url(#a)" transform="translate(.002 .001)"><path d="M13.452 13.151h-2.831v3.669h-2.26v-3.669H.376v-1.942L7.447.227h3.174v10.982h2.831zM8.361 2.36l-5.776 8.849h5.776zm19.182 9.153a4.759 4.759 0 01-.533 2.247 5.365 5.365 0 01-1.466 1.746 7 7 0 01-2.2 1.136 8.95 8.95 0 01-2.742.406q-.368 0-.793-.019t-.844-.051q-.419-.032-.819-.07t-.721-.088v-2.006a10.665 10.665 0 001.568.241q.882.076 1.784.076a6.418 6.418 0 001.828-.241 4.084 4.084 0 001.384-.692 3.036 3.036 0 00.876-1.092 3.316 3.316 0 00.3-1.441 2.47 2.47 0 00-1.111-2.253 5.984 5.984 0 00-3.193-.7h-3.144V.227h8.938v1.93h-6.856V6.82h1.447a12.356 12.356 0 012.323.216 5.966 5.966 0 012.012.755 4.158 4.158 0 011.422 1.447 4.4 4.4 0 01.54 2.275zm15.957.051a5.584 5.584 0 01-.413 2.146 5.142 5.142 0 01-1.174 1.746 5.491 5.491 0 01-1.835 1.164 6.407 6.407 0 01-2.38.425 6.275 6.275 0 01-2.425-.438 4.308 4.308 0 01-1.765-1.346 6.3 6.3 0 01-1.078-2.288 12.843 12.843 0 01-.368-3.275 17.963 17.963 0 01.165-2.463 11.043 11.043 0 01.546-2.247 7.771 7.771 0 011.016-1.93 6.094 6.094 0 011.581-1.5A7.608 7.608 0 0137.598.58a11.358 11.358 0 012.971-.349h1.638v1.93H40.43a8.352 8.352 0 00-2.577.355 5.137 5.137 0 00-1.828 1 4.334 4.334 0 00-1.13 1.562 6.644 6.644 0 00-.5 2.044l-.051.521a7.561 7.561 0 011.847-.755 8.588 8.588 0 012.266-.286 6.051 6.051 0 012.2.368 4.319 4.319 0 011.574 1.022 4.232 4.232 0 01.946 1.568 6.08 6.08 0 01.323 2.004zm-2.311.14a4.8 4.8 0 00-.184-1.377 2.6 2.6 0 00-.578-1.041 2.636 2.636 0 00-1-.66 3.97 3.97 0 00-1.441-.235 5.525 5.525 0 00-.978.089 6.949 6.949 0 00-.971.248 8.276 8.276 0 00-.908.362 6.843 6.843 0 00-.787.432 13.734 13.734 0 00.229 2.736 4.876 4.876 0 00.679 1.758 2.535 2.535 0 001.111.939 3.883 3.883 0 001.523.279 3.626 3.626 0 001.327-.235 2.861 2.861 0 001.041-.692 3.241 3.241 0 00.686-1.111 4.192 4.192 0 00.251-1.492zm17.442.952a3.848 3.848 0 01-1.638 3.25 5.692 5.692 0 01-1.828.851 9.319 9.319 0 01-4.678-.013 5.141 5.141 0 01-1.733-.851 3.584 3.584 0 01-1.054-1.295 3.8 3.8 0 01-.355-1.65 4.181 4.181 0 01.851-2.628 7.578 7.578 0 012.628-2.006A6.631 6.631 0 0148.45 6.48a3.837 3.837 0 01.578-5.2 4.99 4.99 0 011.669-.933 7.191 7.191 0 012.361-.349 8.362 8.362 0 012.253.273 4.757 4.757 0 011.631.781 3.23 3.23 0 01.99 1.231 3.84 3.84 0 01.33 1.612 3.838 3.838 0 01-.806 2.463 6.865 6.865 0 01-2.292 1.777 10.839 10.839 0 011.371.813 5.943 5.943 0 011.1.99 4.023 4.023 0 01.99 2.717zm-2.628-8.582a1.911 1.911 0 00-.793-1.682 4.769 4.769 0 00-4.443-.006 1.856 1.856 0 00-.793 1.638 2.183 2.183 0 00.19.914 2.464 2.464 0 00.59.787 6.017 6.017 0 001 .724 13.735 13.735 0 001.422.724 7.167 7.167 0 002.133-1.4 2.377 2.377 0 00.695-1.699zm.227 8.746a2.8 2.8 0 00-.152-.914 2.538 2.538 0 00-.546-.876 5.481 5.481 0 00-1.054-.863 12.41 12.41 0 00-1.676-.889 10.746 10.746 0 00-1.454.832 5.011 5.011 0 00-.952.838 2.668 2.668 0 00-.514.882 3.031 3.031 0 00-.152.965 2.016 2.016 0 00.248 1.009 2.271 2.271 0 00.679.743 3.091 3.091 0 001.028.457 5.225 5.225 0 001.295.152 5.558 5.558 0 001.27-.14 3.222 3.222 0 001.035-.425 2.132 2.132 0 00.692-.724 2.054 2.054 0 00.253-1.047zm32.98-5.23a13.2 13.2 0 01-.584 4.17 7.1 7.1 0 01-1.727 2.869 6.945 6.945 0 01-2.831 1.657 12.955 12.955 0 01-3.9.533H78.79V14.89h1.54a10.7 10.7 0 002.831-.33 5.417 5.417 0 001.987-.971 4.242 4.242 0 001.212-1.562 6.357 6.357 0 00.521-2.1l.051-.521a7.581 7.581 0 01-1.841.755 8.516 8.516 0 01-2.26.286 6.1 6.1 0 01-2.209-.368 4.154 4.154 0 01-2.526-2.6 5.943 5.943 0 01-.317-1.974 5.542 5.542 0 01.419-2.158 5.267 5.267 0 011.174-1.746A5.545 5.545 0 0181.176.43a6.073 6.073 0 012.323-.432 6.248 6.248 0 012.279.406 4.429 4.429 0 011.81 1.316 6.516 6.516 0 011.193 2.355 12.433 12.433 0 01.432 3.516zm-5.812-5.776a3.59 3.59 0 00-1.314.235 2.9 2.9 0 00-1.041.686 3.238 3.238 0 00-.692 1.111 4.188 4.188 0 00-.254 1.511 4.785 4.785 0 00.184 1.384 2.649 2.649 0 00.571 1.035 2.513 2.513 0 001 .654 4.123 4.123 0 001.447.229 5.564 5.564 0 00.971-.089 7.55 7.55 0 001.885-.6 6.005 6.005 0 00.774-.432 13.032 13.032 0 00-.241-2.736 5.019 5.019 0 00-.7-1.765 2.569 2.569 0 00-1.111-.946 3.732 3.732 0 00-1.479-.277zm20.819 9.7a4.759 4.759 0 01-.533 2.247 5.365 5.365 0 01-1.466 1.746 7 7 0 01-2.2 1.136 8.95 8.95 0 01-2.742.406q-.368 0-.793-.019t-.844-.051q-.419-.032-.819-.07t-.721-.089v-2.006a10.665 10.665 0 001.568.241q.882.076 1.784.076a6.418 6.418 0 001.828-.241 4.084 4.084 0 001.384-.692 3.036 3.036 0 00.876-1.092 3.316 3.316 0 00.3-1.441 2.47 2.47 0 00-1.111-2.253 5.984 5.984 0 00-3.193-.7h-3.144V.227h8.939v1.93h-6.857V6.82h1.447a12.356 12.356 0 012.323.216 5.966 5.966 0 012.012.755 4.158 4.158 0 011.422 1.447 4.4 4.4 0 01.54 2.275zm15.335 0a4.759 4.759 0 01-.533 2.247 5.365 5.365 0 01-1.466 1.746 7 7 0 01-2.2 1.136 8.95 8.95 0 01-2.742.406q-.368 0-.793-.019t-.844-.051q-.419-.032-.819-.07t-.725-.089v-2.006a10.665 10.665 0 001.568.241q.882.076 1.784.076a6.418 6.418 0 001.828-.241 4.084 4.084 0 001.384-.692 3.036 3.036 0 00.876-1.092 3.316 3.316 0 00.3-1.441 2.47 2.47 0 00-1.111-2.253 5.984 5.984 0 00-3.193-.7h-3.136V.227h8.938v1.93h-6.855V6.82h1.447a12.356 12.356 0 012.323.216 5.966 5.966 0 012.012.755 4.158 4.158 0 011.422 1.447 4.4 4.4 0 01.535 2.275zm15.665-3.923a13.2 13.2 0 01-.584 4.17 7.1 7.1 0 01-1.727 2.869 6.945 6.945 0 01-2.831 1.657 12.955 12.955 0 01-3.9.533h-1.384v-1.93h1.539a10.7 10.7 0 002.831-.33 5.417 5.417 0 001.987-.971 4.242 4.242 0 001.212-1.562 6.356 6.356 0 00.521-2.1l.051-.521a7.581 7.581 0 01-1.841.755 8.516 8.516 0 01-2.26.286 6.1 6.1 0 01-2.209-.368 4.154 4.154 0 01-2.526-2.6 5.943 5.943 0 01-.317-1.974 5.542 5.542 0 01.419-2.158 5.267 5.267 0 011.174-1.746 5.545 5.545 0 011.809-1.174 6.073 6.073 0 012.323-.432 6.248 6.248 0 012.279.406 4.429 4.429 0 011.809 1.319 6.516 6.516 0 011.193 2.355 12.434 12.434 0 01.432 3.516zm-5.814-5.776a3.59 3.59 0 00-1.314.235 2.9 2.9 0 00-1.041.686 3.238 3.238 0 00-.692 1.111 4.188 4.188 0 00-.254 1.511 4.785 4.785 0 00.184 1.384 2.649 2.649 0 00.571 1.035 2.513 2.513 0 001 .654 4.123 4.123 0 001.447.229 5.564 5.564 0 00.971-.089 7.55 7.55 0 001.885-.6 6.007 6.007 0 00.774-.432 13.031 13.031 0 00-.241-2.736 5.019 5.019 0 00-.7-1.765 2.57 2.57 0 00-1.111-.946 3.732 3.732 0 00-1.479-.278zm36.154 9.7a4.759 4.759 0 01-.533 2.247 5.365 5.365 0 01-1.466 1.746 7 7 0 01-2.2 1.136 8.95 8.95 0 01-2.742.406q-.368 0-.793-.019t-.844-.051q-.419-.032-.819-.07t-.721-.09v-2.006a10.665 10.665 0 001.568.241q.882.076 1.784.076a6.418 6.418 0 001.828-.241 4.084 4.084 0 001.384-.692 3.036 3.036 0 00.876-1.092 3.316 3.316 0 00.3-1.441 2.47 2.47 0 00-1.111-2.253 5.984 5.984 0 00-3.193-.7h-3.145V.227h8.938v1.93h-6.855V6.82h1.447a12.356 12.356 0 012.323.216 5.966 5.966 0 012.012.755 4.158 4.158 0 011.422 1.447 4.4 4.4 0 01.54 2.275zm15.665-3.923a13.2 13.2 0 01-.584 4.17 7.1 7.1 0 01-1.727 2.869 6.945 6.945 0 01-2.831 1.657 12.955 12.955 0 01-3.9.533h-1.384V14.89h1.536a10.7 10.7 0 002.831-.33 5.417 5.417 0 001.987-.971 4.242 4.242 0 001.212-1.562 6.356 6.356 0 00.521-2.1l.051-.521a7.581 7.581 0 01-1.841.755 8.516 8.516 0 01-2.26.286 6.1 6.1 0 01-2.209-.368 4.154 4.154 0 01-2.526-2.6 5.943 5.943 0 01-.317-1.974 5.542 5.542 0 01.419-2.158 5.267 5.267 0 011.174-1.746 5.545 5.545 0 011.809-1.174 6.073 6.073 0 012.323-.432 6.248 6.248 0 012.279.406 4.429 4.429 0 011.812 1.319 6.516 6.516 0 011.193 2.355 12.432 12.432 0 01.432 3.516zm-5.814-5.776a3.59 3.59 0 00-1.314.235 2.9 2.9 0 00-1.041.686 3.238 3.238 0 00-.692 1.111 4.188 4.188 0 00-.254 1.511 4.784 4.784 0 00.184 1.384 2.65 2.65 0 00.571 1.035 2.513 2.513 0 001 .654 4.123 4.123 0 001.447.229 5.563 5.563 0 00.971-.089 7.55 7.55 0 001.885-.6 6 6 0 00.774-.432 13.031 13.031 0 00-.241-2.736 5.019 5.019 0 00-.7-1.765 2.57 2.57 0 00-1.111-.946 3.732 3.732 0 00-1.479-.279zm20.922 9.964a4.816 4.816 0 01-.444 2.05 4.665 4.665 0 01-1.333 1.676 6.6 6.6 0 01-2.234 1.13 10.728 10.728 0 01-3.136.413q-.99 0-1.777-.063t-1.476-.166v-1.98q.787.14 1.663.216t1.79.076a8.818 8.818 0 002.126-.222 4.014 4.014 0 001.441-.641 2.467 2.467 0 00.813-1.016 3.406 3.406 0 00.254-1.346 2.275 2.275 0 00-.3-1.193 2.535 2.535 0 00-.857-.851 4.237 4.237 0 00-1.32-.514 7.726 7.726 0 00-1.682-.171h-1.892V7.362h1.917a4.467 4.467 0 001.365-.2 3.067 3.067 0 001.054-.565 2.44 2.44 0 00.673-.908 3.041 3.041 0 00.235-1.225 2.27 2.27 0 00-.812-1.942 3.94 3.94 0 00-2.387-.609 9.449 9.449 0 00-1.727.165 15.138 15.138 0 00-1.9.5V.646q.432-.152.92-.273t.978-.2q.489-.083.971-.127t.927-.044a8.512 8.512 0 012.323.286 4.769 4.769 0 011.676.819 3.429 3.429 0 011.016 1.295 4.132 4.132 0 01.343 1.714 3.842 3.842 0 01-.73 2.387 5.034 5.034 0 01-2 1.536 4.521 4.521 0 011.276.406 4.451 4.451 0 011.13.781 3.8 3.8 0 01.813 1.124 3.27 3.27 0 01.303 1.43zm15.335 0a4.816 4.816 0 01-.444 2.05 4.665 4.665 0 01-1.333 1.676 6.6 6.6 0 01-2.234 1.13 10.728 10.728 0 01-3.136.413q-.99 0-1.777-.063t-1.475-.166v-1.98q.787.14 1.663.216t1.79.076a8.818 8.818 0 002.126-.222 4.014 4.014 0 001.441-.641 2.467 2.467 0 00.813-1.016 3.406 3.406 0 00.254-1.346 2.275 2.275 0 00-.3-1.193 2.535 2.535 0 00-.857-.851 4.237 4.237 0 00-1.32-.514 7.726 7.726 0 00-1.682-.171h-1.892V7.362h1.917a4.467 4.467 0 001.365-.2 3.067 3.067 0 001.054-.565 2.44 2.44 0 00.673-.908 3.041 3.041 0 00.235-1.225 2.27 2.27 0 00-.812-1.942 3.94 3.94 0 00-2.387-.609 9.449 9.449 0 00-1.727.165 15.138 15.138 0 00-1.9.5V.646q.432-.152.92-.273t.978-.2q.489-.083.971-.127t.927-.044a8.512 8.512 0 012.314.282 4.769 4.769 0 011.676.819 3.429 3.429 0 011.016 1.295 4.132 4.132 0 01.343 1.714 3.842 3.842 0 01-.73 2.387 5.034 5.034 0 01-2 1.536 4.521 4.521 0 011.276.406 4.451 4.451 0 011.13.781 3.8 3.8 0 01.813 1.124 3.27 3.27 0 01.309 1.434zm30.67 0a4.816 4.816 0 01-.444 2.05 4.665 4.665 0 01-1.333 1.676 6.6 6.6 0 01-2.234 1.13 10.728 10.728 0 01-3.136.413q-.99 0-1.777-.063t-1.475-.166v-1.98q.787.14 1.663.216t1.79.076a8.818 8.818 0 002.126-.222 4.014 4.014 0 001.441-.641 2.467 2.467 0 00.813-1.016 3.406 3.406 0 00.254-1.346 2.275 2.275 0 00-.3-1.193 2.535 2.535 0 00-.857-.851 4.237 4.237 0 00-1.32-.514 7.726 7.726 0 00-1.682-.171h-1.892V7.362h1.917a4.467 4.467 0 001.365-.2 3.067 3.067 0 001.054-.565 2.44 2.44 0 00.673-.908 3.041 3.041 0 00.235-1.225 2.27 2.27 0 00-.812-1.942 3.94 3.94 0 00-2.387-.609 9.449 9.449 0 00-1.727.165 15.138 15.138 0 00-1.9.5V.646q.432-.152.92-.273t.978-.2q.489-.083.971-.127t.927-.044a8.512 8.512 0 012.323.286 4.769 4.769 0 011.676.819 3.429 3.429 0 011.016 1.295 4.132 4.132 0 01.343 1.714 3.842 3.842 0 01-.73 2.387 5.034 5.034 0 01-2 1.536 4.521 4.521 0 011.276.406 4.451 4.451 0 011.13.781 3.8 3.8 0 01.813 1.124 3.27 3.27 0 01.297 1.43zm15.335 0a4.815 4.815 0 01-.444 2.05 4.665 4.665 0 01-1.333 1.676 6.6 6.6 0 01-2.234 1.13 10.728 10.728 0 01-3.136.413q-.99 0-1.777-.063t-1.475-.166v-1.98q.787.14 1.663.216t1.79.076a8.818 8.818 0 002.126-.222 4.014 4.014 0 001.441-.641 2.467 2.467 0 00.813-1.016 3.406 3.406 0 00.254-1.346 2.275 2.275 0 00-.3-1.193 2.535 2.535 0 00-.857-.851 4.237 4.237 0 00-1.32-.514 7.726 7.726 0 00-1.682-.171h-1.892V7.362h1.917a4.467 4.467 0 001.365-.2 3.067 3.067 0 001.054-.565 2.44 2.44 0 00.673-.908 3.041 3.041 0 00.235-1.225 2.27 2.27 0 00-.812-1.942 3.94 3.94 0 00-2.387-.609 9.449 9.449 0 00-1.727.165 15.138 15.138 0 00-1.9.5V.646q.432-.152.92-.273t.978-.2q.489-.083.971-.127t.927-.044a8.512 8.512 0 012.309.282 4.769 4.769 0 011.676.819 3.429 3.429 0 011.024 1.295 4.132 4.132 0 01.343 1.714 3.842 3.842 0 01-.73 2.387 5.034 5.034 0 01-2 1.536 4.521 4.521 0 011.276.406 4.451 4.451 0 011.13.781 3.8 3.8 0 01.813 1.124 3.27 3.27 0 01.306 1.434zm15.233-.267a4.759 4.759 0 01-.533 2.247 5.365 5.365 0 01-1.466 1.746 7 7 0 01-2.2 1.136 8.95 8.95 0 01-2.742.406q-.368 0-.793-.019t-.844-.051q-.419-.032-.819-.07t-.723-.088v-2.006a10.665 10.665 0 001.568.241q.882.076 1.784.076a6.418 6.418 0 001.828-.241 4.085 4.085 0 001.384-.692 3.036 3.036 0 00.876-1.092 3.316 3.316 0 00.3-1.441 2.47 2.47 0 00-1.111-2.253 5.984 5.984 0 00-3.193-.7h-3.148V.227h8.938v1.93h-6.855V6.82h1.447a12.357 12.357 0 012.323.216 5.966 5.966 0 012.012.755 4.158 4.158 0 011.422 1.447 4.4 4.4 0 01.544 2.275zm15.335 0a4.759 4.759 0 01-.533 2.247 5.365 5.365 0 01-1.466 1.746 7 7 0 01-2.2 1.136 8.95 8.95 0 01-2.742.406q-.368 0-.793-.019t-.844-.051q-.419-.032-.819-.07t-.723-.088v-2.006a10.665 10.665 0 001.568.241q.882.076 1.784.076a6.418 6.418 0 001.828-.241 4.085 4.085 0 001.384-.692 3.036 3.036 0 00.876-1.092 3.316 3.316 0 00.3-1.441 2.47 2.47 0 00-1.111-2.253 5.984 5.984 0 00-3.193-.7h-3.144V.227h8.938v1.93h-6.855V6.82h1.447a12.357 12.357 0 012.323.216 5.966 5.966 0 012.012.755 4.158 4.158 0 011.422 1.447 4.4 4.4 0 01.539 2.275z" fill="#fff" opacity=".89"/></g><g filter="url(#b)" transform="translate(.002 .001)"><path d="M11.462 92.198a10.813 10.813 0 01-4.177.825 6.881 6.881 0 01-5.4-2.1Q-.002 88.82-.002 84.708a11.7 11.7 0 01.521-3.605 7.838 7.838 0 011.485-2.737 6.54 6.54 0 012.336-1.733 7.485 7.485 0 013.072-.613 11.012 11.012 0 012.146.2 8.986 8.986 0 011.9.6v2.222a8.421 8.421 0 00-1.866-.755 8.075 8.075 0 00-2.107-.26 4.971 4.971 0 00-2.114.438 4.373 4.373 0 00-1.606 1.27 5.943 5.943 0 00-1.016 2.031 9.637 9.637 0 00-.355 2.736 7.677 7.677 0 001.308 4.862 4.614 4.614 0 003.834 1.638 8.3 8.3 0 002.044-.248 9.527 9.527 0 001.879-.692zm16.868.622h-2.46l-1.155-3.618h-6.907l-1.167 3.618h-2.349l5.51-16.593h3.1zm-4.266-5.637l-2.802-8.874-2.806 8.874zm18.779 5.637h-2.552l-2.476-5.307a5.868 5.868 0 00-.571-1.009 2.713 2.713 0 00-.628-.635 2.238 2.238 0 00-.736-.336 3.64 3.64 0 00-.9-.1h-1.062v7.387h-2.26V76.227h4.443a8.592 8.592 0 012.488.317 4.689 4.689 0 011.708.889 3.4 3.4 0 01.978 1.377 4.918 4.918 0 01.311 1.784 4.646 4.646 0 01-.229 1.466 4.021 4.021 0 01-.679 1.257 4.321 4.321 0 01-1.117.978 5.106 5.106 0 01-1.53.616 2.6 2.6 0 011.187.844 9.121 9.121 0 011 1.606zm-3.619-12.035a2.39 2.39 0 00-.832-1.993 3.683 3.683 0 00-2.342-.66h-2.132v5.488h1.828a5.219 5.219 0 001.441-.184 3.078 3.078 0 001.092-.546 2.473 2.473 0 00.7-.889 2.82 2.82 0 00.245-1.216zm18.979 3.555a13.732 13.732 0 01-.184 2.285 8.773 8.773 0 01-.59 2.031 6.854 6.854 0 01-1.054 1.708 5.982 5.982 0 01-1.587 1.314 8.07 8.07 0 01-2.184.844 12.188 12.188 0 01-2.831.3h-3.554V76.227h4.278q3.885 0 5.8 2t1.906 6.113zm-2.373.165a11.574 11.574 0 00-.33-2.983 4.751 4.751 0 00-1-1.968 3.849 3.849 0 00-1.688-1.085 7.607 7.607 0 00-2.387-.336h-1.947v12.732h1.688q5.664 0 5.664-6.36zm17.238 8.315h-2.26v-7.617h-6.97v7.617h-2.26V76.227h2.26v7.021h6.97v-7.021h2.26zm16.033-8.4a12.569 12.569 0 01-.527 3.859 7.878 7.878 0 01-1.422 2.685 5.618 5.618 0 01-2.095 1.574 6.756 6.756 0 01-5.319-.063 5.166 5.166 0 01-1.968-1.669 7.614 7.614 0 01-1.162-2.66 15.016 15.016 0 01-.381-3.536 12.615 12.615 0 01.521-3.834 7.8 7.8 0 011.416-2.685 5.631 5.631 0 012.088-1.574 6.317 6.317 0 012.526-.514 6.244 6.244 0 012.787.584 5.293 5.293 0 011.975 1.665 7.559 7.559 0 011.174 2.647 14.642 14.642 0 01.387 3.521zm-2.349.165a14.866 14.866 0 00-.222-2.672 6.663 6.663 0 00-.717-2.093 3.693 3.693 0 00-1.276-1.358 3.518 3.518 0 00-1.885-.482 3.22 3.22 0 00-1.834.514 4 4 0 00-1.263 1.4 7.094 7.094 0 00-.736 2.069 12.639 12.639 0 00-.241 2.52 14.54 14.54 0 00.229 2.685 6.8 6.8 0 00.717 2.082 3.676 3.676 0 001.263 1.352 3.46 3.46 0 001.866.482 3.251 3.251 0 001.841-.514 4.031 4.031 0 001.276-1.4 6.979 6.979 0 00.743-2.063 12.612 12.612 0 00.24-2.526zm16.592 8.235h-9.546V76.227h2.3V90.89h7.249zm16.2-8.48a13.732 13.732 0 01-.184 2.285 8.772 8.772 0 01-.59 2.031 6.854 6.854 0 01-1.054 1.708 5.982 5.982 0 01-1.587 1.314 8.07 8.07 0 01-2.184.844 12.188 12.188 0 01-2.831.3h-3.555V76.227h4.278q3.885 0 5.8 2t1.906 6.113zm-2.374.165a11.574 11.574 0 00-.33-2.983 4.751 4.751 0 00-1-1.968 3.849 3.849 0 00-1.688-1.085 7.607 7.607 0 00-2.387-.336h-1.942v12.732h1.688q5.658 0 5.658-6.36zm16.324 8.315h-9.433V76.227h9.433v1.9h-7.173v5.142h6.894v1.9h-6.894v5.721h7.173zm16.693 0h-2.552l-2.476-5.307a5.868 5.868 0 00-.571-1.009 2.713 2.713 0 00-.628-.635 2.238 2.238 0 00-.736-.336 3.64 3.64 0 00-.9-.1h-1.066v7.387h-2.26V76.227h4.443a8.592 8.592 0 012.488.317 4.689 4.689 0 011.708.889 3.4 3.4 0 01.978 1.377 4.918 4.918 0 01.311 1.784 4.646 4.646 0 01-.229 1.466 4.021 4.021 0 01-.679 1.257 4.322 4.322 0 01-1.117.978 5.106 5.106 0 01-1.53.616 2.6 2.6 0 011.187.844 9.121 9.121 0 011 1.606zm-3.618-12.035a2.39 2.39 0 00-.832-1.993 3.683 3.683 0 00-2.342-.66h-2.133v5.488h1.828a5.219 5.219 0 001.441-.184 3.078 3.078 0 001.092-.546 2.473 2.473 0 00.7-.889 2.82 2.82 0 00.246-1.216zm33.742 12.035h-2.945l-4.836-10.347-1.4-3.326V92.82h-2.107V76.227h2.907l4.608 9.8 1.663 3.8v-13.6h2.107zm16.706 0h-2.463l-1.155-3.618h-6.906l-1.168 3.618h-2.349l5.51-16.593h3.1zm-4.266-5.637l-2.806-8.874-2.806 8.874zm19.106 5.637h-2.209l-.33-10.347-.14-3.974-.774 2.311-2.45 6.6h-1.562l-2.336-6.348-.774-2.564-.051 4.151-.292 10.171h-2.133l.813-16.593h2.679l2.234 6.246.724 2.107.7-2.107 2.349-6.246h2.755zm13.646 0h-9.433V76.227h9.433v1.9h-7.173v5.142h6.894v1.9h-6.894v5.721h7.173z" fill="#fff" opacity=".89"/></g></svg>