<svg xmlns="http://www.w3.org/2000/svg" width="73.056" height="53.175" viewBox="0 0 73.056 53.175"><path d="M65.121,56H7.935A7.688,7.688,0,0,0,0,63.4v38.382a7.688,7.688,0,0,0,7.935,7.4H65.121a7.688,7.688,0,0,0,7.935-7.4V63.4A7.688,7.688,0,0,0,65.121,56Zm1.215,25.588h-17.3v-7.53a1.177,1.177,0,0,1,1.215-1.133H66.336Zm-17.3,2h17.3v8.663h-17.3Zm19.443-5.331h2.43v8.663h-2.43Zm0-2V67.594h2.43v8.663Zm-2.145-5.331H50.253a3.255,3.255,0,0,0-3.36,3.132v28.853H26.163V62.264H65.121A1.177,1.177,0,0,1,66.336,63.4ZM24.018,81.588H6.719V72.925h17.3ZM4.575,86.919H2.144V78.256h2.43Zm2.144-3.332h17.3v8.663H6.719ZM37.6,60.265V58H57.187v2.266Zm-2.145,0H15.869V58H35.456Zm-11.437,2v8.663H6.719V63.4a1.177,1.177,0,0,1,1.215-1.133ZM4.575,76.257H2.144V67.594h2.43ZM2.144,88.918h2.43V97.58H2.144Zm4.575,5.331h17.3v8.663H7.935a1.178,1.178,0,0,1-1.215-1.133ZM35.456,104.91v2.266H15.869V104.91Zm2.145,0H57.187v2.266H37.6Zm11.437-2V94.248h17.3v7.53a1.177,1.177,0,0,1-1.215,1.133ZM68.481,88.918h2.43V97.58h-2.43ZM70.911,63.4v2.2h-2.43V63.4a3.255,3.255,0,0,0-3.36-3.132h-5.79V58h5.79A5.61,5.61,0,0,1,70.911,63.4ZM7.935,58h5.79v2.266H7.935A3.255,3.255,0,0,0,4.575,63.4v2.2H2.144V63.4A5.61,5.61,0,0,1,7.935,58Zm-5.79,43.779v-2.2h2.43v2.2a3.255,3.255,0,0,0,3.36,3.132h5.79v2.266H7.935A5.61,5.61,0,0,1,2.144,101.778Zm62.977,5.4h-5.79V104.91h5.79a3.255,3.255,0,0,0,3.36-3.132v-2.2h2.43v2.2A5.61,5.61,0,0,1,65.121,107.176Z" transform="translate(0 -56)" fill="#fff" opacity="0.3"/></svg>