<svg xmlns="http://www.w3.org/2000/svg" xmlns:xlink="http://www.w3.org/1999/xlink" width="138.8" height="25.73" viewBox="0 0 138.8 25.73"><defs><filter id="a" x="0" y="0" width="138.8" height="25.73" filterUnits="userSpaceOnUse"><feOffset dx="2" dy="2" input="SourceAlpha"/><feGaussianBlur result="b"/><feFlood flood-opacity="0.161"/><feComposite operator="in" in2="b"/><feComposite in="SourceGraphic"/></filter></defs><g transform="matrix(1, 0, 0, 1, 0, 0)" filter="url(#a)"><path d="M15.18,27.52q-1.05.27-2.73.555a22.124,22.124,0,0,1-3.69.285A8.136,8.136,0,0,1,5.6,27.82a5.08,5.08,0,0,1-2.04-1.5,5.9,5.9,0,0,1-1.1-2.3A12.18,12.18,0,0,1,2.13,21.1V12.31H5.76v8.22a6.631,6.631,0,0,0,.735,3.6A2.877,2.877,0,0,0,9.06,25.21q.66,0,1.395-.06a7.377,7.377,0,0,0,1.1-.15V12.31h3.63Zm14.04.93a11.561,11.561,0,0,1-4.2-.72,8.305,8.305,0,0,1-3.15-2.115,9.466,9.466,0,0,1-1.98-3.405,14.207,14.207,0,0,1-.69-4.62,12.494,12.494,0,0,1,.795-4.62,10,10,0,0,1,2.175-3.4A9.148,9.148,0,0,1,25.41,7.45a10.956,10.956,0,0,1,3.99-.72,12.865,12.865,0,0,1,2.34.2,16.594,16.594,0,0,1,1.83.435,7.526,7.526,0,0,1,1.29.51q.51.27.72.39l-1.11,3.09a8.816,8.816,0,0,0-2.055-.855,9.93,9.93,0,0,0-2.9-.4,6.761,6.761,0,0,0-2.52.465,5.453,5.453,0,0,0-2.025,1.4,6.5,6.5,0,0,0-1.335,2.34,10.145,10.145,0,0,0-.48,3.27,11.534,11.534,0,0,0,.375,3.03,6.71,6.71,0,0,0,1.155,2.385,5.255,5.255,0,0,0,1.98,1.56,6.819,6.819,0,0,0,2.88.555,10.927,10.927,0,0,0,3.27-.405,12.99,12.99,0,0,0,1.95-.765l1.02,3.09a5.2,5.2,0,0,1-.975.48,14.037,14.037,0,0,1-1.455.465,14.474,14.474,0,0,1-1.89.36A17.674,17.674,0,0,1,29.22,28.45Zm15.24-3a13.508,13.508,0,0,0,2.55-.18V21.25a7.062,7.062,0,0,0-.87-.18,8.111,8.111,0,0,0-1.26-.09,8.383,8.383,0,0,0-1.215.09,3.786,3.786,0,0,0-1.11.33,2.013,2.013,0,0,0-.795.675,1.885,1.885,0,0,0-.3,1.095,1.92,1.92,0,0,0,.81,1.785A4.179,4.179,0,0,0,44.46,25.45Zm-.3-13.53a8.88,8.88,0,0,1,3.03.45,4.838,4.838,0,0,1,1.965,1.26,4.72,4.72,0,0,1,1.05,1.965,9.617,9.617,0,0,1,.315,2.535v9.51q-.84.18-2.535.435a25.889,25.889,0,0,1-3.825.255,11.481,11.481,0,0,1-2.58-.27,5.424,5.424,0,0,1-1.995-.87,4.105,4.105,0,0,1-1.29-1.56,5.412,5.412,0,0,1-.465-2.37,4.576,4.576,0,0,1,.525-2.28,4.309,4.309,0,0,1,1.425-1.515,6.169,6.169,0,0,1,2.085-.84,11.736,11.736,0,0,1,2.475-.255,11.175,11.175,0,0,1,1.26.075,11.753,11.753,0,0,1,1.41.255v-.6a4.7,4.7,0,0,0-.15-1.2,2.487,2.487,0,0,0-.525-1.005,2.456,2.456,0,0,0-.99-.675,4.285,4.285,0,0,0-1.545-.24,13.712,13.712,0,0,0-2.31.18,10.156,10.156,0,0,0-1.71.42l-.45-2.94a14.29,14.29,0,0,1,2.01-.48A15.763,15.763,0,0,1,44.16,11.92ZM63.9,15.58a11.573,11.573,0,0,0-1.245-.315A9.157,9.157,0,0,0,60.81,15.1a7.3,7.3,0,0,0-1.275.12,7.663,7.663,0,0,0-.945.21V28H54.96V13.06a19.955,19.955,0,0,1,2.625-.735,16.364,16.364,0,0,1,3.495-.345q.36,0,.84.045t.96.12q.48.075.93.18t.72.195Zm6,4.53a5.7,5.7,0,0,0,1.14,3.765,3.882,3.882,0,0,0,3.15,1.365,12.517,12.517,0,0,0,1.485-.075A10.009,10.009,0,0,0,76.68,25V16a5.622,5.622,0,0,0-1.275-.615A4.985,4.985,0,0,0,73.71,15.1a3.247,3.247,0,0,0-2.9,1.35A6.437,6.437,0,0,0,69.9,20.11Zm10.41,7.41a21.5,21.5,0,0,1-2.715.6,21.069,21.069,0,0,1-3.435.27,9.155,9.155,0,0,1-3.33-.57,6.939,6.939,0,0,1-2.505-1.635,7.2,7.2,0,0,1-1.59-2.58A9.846,9.846,0,0,1,66.18,20.2a11.475,11.475,0,0,1,.465-3.375A7.383,7.383,0,0,1,68.01,14.23a6.084,6.084,0,0,1,2.19-1.665,7.123,7.123,0,0,1,2.97-.585,6.791,6.791,0,0,1,2.01.27,8.993,8.993,0,0,1,1.5.6V5.32l3.63-.6ZM92.19,13.03q.87-.24,2.34-.54a18.347,18.347,0,0,1,3.6-.3,7.494,7.494,0,0,1,2.955.51,4.539,4.539,0,0,1,1.89,1.455,5.936,5.936,0,0,1,1.005,2.265,13.141,13.141,0,0,1,.3,2.91V28h-1.95V19.96a14.688,14.688,0,0,0-.225-2.79,4.653,4.653,0,0,0-.75-1.86,2.915,2.915,0,0,0-1.38-1.035,6.268,6.268,0,0,0-2.145-.315,16.408,16.408,0,0,0-2.385.15,7.308,7.308,0,0,0-1.305.27V28H92.19Zm16.14,7.2a9.846,9.846,0,0,1,.585-3.555,7.831,7.831,0,0,1,1.53-2.535,6.023,6.023,0,0,1,2.16-1.515,6.58,6.58,0,0,1,2.5-.495,5.848,5.848,0,0,1,4.545,1.86q1.695,1.86,1.695,5.73,0,.24-.015.48t-.045.45H110.4a6.859,6.859,0,0,0,1.41,4.38,5.263,5.263,0,0,0,4.2,1.53,8.487,8.487,0,0,0,2.52-.3,10.518,10.518,0,0,0,1.35-.51l.36,1.68a8.105,8.105,0,0,1-1.575.57,9.939,9.939,0,0,1-2.715.33,9.039,9.039,0,0,1-3.48-.6,6.229,6.229,0,0,1-2.37-1.68,6.642,6.642,0,0,1-1.35-2.565A11.931,11.931,0,0,1,108.33,20.23ZM119.34,19a6.16,6.16,0,0,0-1.14-3.78,3.694,3.694,0,0,0-3.06-1.35,4.075,4.075,0,0,0-1.875.42,4.762,4.762,0,0,0-1.44,1.125,5.226,5.226,0,0,0-.96,1.635,6.707,6.707,0,0,0-.4,1.95Zm19.59,1.26a10.028,10.028,0,0,1-.525,3.33,7.426,7.426,0,0,1-1.47,2.55,6.7,6.7,0,0,1-2.235,1.635,7.235,7.235,0,0,1-5.7,0,6.7,6.7,0,0,1-2.235-1.635,7.426,7.426,0,0,1-1.47-2.55,10.028,10.028,0,0,1-.525-3.33,10.027,10.027,0,0,1,.525-3.33,7.592,7.592,0,0,1,1.47-2.565A6.6,6.6,0,0,1,129,12.715a7.235,7.235,0,0,1,5.7,0,6.6,6.6,0,0,1,2.235,1.65,7.592,7.592,0,0,1,1.47,2.565A10.028,10.028,0,0,1,138.93,20.26Zm-2.07,0a7.321,7.321,0,0,0-1.35-4.635,4.745,4.745,0,0,0-7.32,0,7.321,7.321,0,0,0-1.35,4.635,7.257,7.257,0,0,0,1.35,4.62,4.772,4.772,0,0,0,7.32,0A7.257,7.257,0,0,0,136.86,20.26Z" transform="translate(-2.13 -4.72)" fill="#fff" opacity="0.89"/></g></svg>