<svg xmlns="http://www.w3.org/2000/svg" xmlns:xlink="http://www.w3.org/1999/xlink" width="290.239" height="95.05" viewBox="0 0 290.239 95.05"><defs><filter id="a" x="0.378" y="0" width="289.861" height="19.05" filterUnits="userSpaceOnUse"><feOffset dx="2" dy="2" input="SourceAlpha"/><feGaussianBlur result="b"/><feFlood flood-opacity="0.161"/><feComposite operator="in" in2="b"/><feComposite in="SourceGraphic"/></filter><filter id="c" x="0" y="76" width="227.505" height="19.05" filterUnits="userSpaceOnUse"><feOffset dx="2" dy="2" input="SourceAlpha"/><feGaussianBlur result="d"/><feFlood flood-opacity="0.161"/><feComposite operator="in" in2="d"/><feComposite in="SourceGraphic"/></filter></defs><g transform="translate(-1043.168 -571.179)"><g transform="matrix(1, 0, 0, 1, 1043.17, 571.18)" filter="url(#a)"><path d="M13.622,20.331H10.791V24H8.531V20.331H.546V18.389L7.617,7.407h3.174V18.389h2.831ZM8.531,9.54,2.755,18.389H8.531Zm19.182,9.153a4.759,4.759,0,0,1-.533,2.247,5.365,5.365,0,0,1-1.466,1.746,7,7,0,0,1-2.2,1.136,8.95,8.95,0,0,1-2.742.406q-.368,0-.793-.019t-.844-.051q-.419-.032-.819-.07T17.595,24V21.994a10.665,10.665,0,0,0,1.568.241q.882.076,1.784.076a6.418,6.418,0,0,0,1.828-.241,4.084,4.084,0,0,0,1.384-.692,3.036,3.036,0,0,0,.876-1.092,3.316,3.316,0,0,0,.3-1.441,2.47,2.47,0,0,0-1.111-2.253,5.984,5.984,0,0,0-3.193-.7H17.887V7.407h8.938v1.93H19.969V14h1.447a12.356,12.356,0,0,1,2.323.216,5.966,5.966,0,0,1,2.012.755,4.158,4.158,0,0,1,1.422,1.447A4.4,4.4,0,0,1,27.713,18.693Zm15.957.051a5.584,5.584,0,0,1-.413,2.146,5.142,5.142,0,0,1-1.174,1.746A5.491,5.491,0,0,1,40.248,23.8a6.407,6.407,0,0,1-2.38.425,6.275,6.275,0,0,1-2.425-.438,4.308,4.308,0,0,1-1.765-1.346A6.3,6.3,0,0,1,32.6,20.153a12.843,12.843,0,0,1-.368-3.275,17.963,17.963,0,0,1,.165-2.463,11.043,11.043,0,0,1,.546-2.247,7.771,7.771,0,0,1,1.016-1.93,6.094,6.094,0,0,1,1.581-1.5,7.608,7.608,0,0,1,2.228-.978,11.358,11.358,0,0,1,2.971-.349h1.638v1.93H40.6a8.352,8.352,0,0,0-2.577.355,5.137,5.137,0,0,0-1.828,1,4.334,4.334,0,0,0-1.13,1.562,6.644,6.644,0,0,0-.5,2.044l-.051.521a7.561,7.561,0,0,1,1.847-.755,8.588,8.588,0,0,1,2.266-.286,6.051,6.051,0,0,1,2.2.368,4.319,4.319,0,0,1,1.574,1.022,4.232,4.232,0,0,1,.946,1.568A6.08,6.08,0,0,1,43.67,18.744Zm-2.311.14a4.8,4.8,0,0,0-.184-1.377,2.6,2.6,0,0,0-.578-1.041,2.636,2.636,0,0,0-1-.66,3.97,3.97,0,0,0-1.441-.235,5.525,5.525,0,0,0-.978.089,6.949,6.949,0,0,0-.971.248,8.276,8.276,0,0,0-.908.362,6.843,6.843,0,0,0-.787.432,13.734,13.734,0,0,0,.229,2.736,4.876,4.876,0,0,0,.679,1.758,2.535,2.535,0,0,0,1.111.939,3.883,3.883,0,0,0,1.523.279,3.626,3.626,0,0,0,1.327-.235,2.861,2.861,0,0,0,1.041-.692,3.241,3.241,0,0,0,.686-1.111A4.192,4.192,0,0,0,41.359,18.884Zm17.442.952a3.848,3.848,0,0,1-1.638,3.25,5.692,5.692,0,0,1-1.828.851,9.319,9.319,0,0,1-4.678-.013,5.141,5.141,0,0,1-1.733-.851,3.584,3.584,0,0,1-1.054-1.295,3.8,3.8,0,0,1-.355-1.65,4.181,4.181,0,0,1,.851-2.628,7.578,7.578,0,0,1,2.628-2.006A6.631,6.631,0,0,1,48.62,13.66a3.837,3.837,0,0,1,.578-5.2,4.99,4.99,0,0,1,1.669-.933,7.191,7.191,0,0,1,2.361-.349,8.362,8.362,0,0,1,2.253.273,4.757,4.757,0,0,1,1.631.781,3.23,3.23,0,0,1,.99,1.231,3.84,3.84,0,0,1,.33,1.612,3.838,3.838,0,0,1-.806,2.463,6.865,6.865,0,0,1-2.292,1.777,10.839,10.839,0,0,1,1.371.813,5.943,5.943,0,0,1,1.1.99,4.023,4.023,0,0,1,.99,2.717Zm-2.628-8.582a1.911,1.911,0,0,0-.793-1.682,4.769,4.769,0,0,0-4.443-.006,1.856,1.856,0,0,0-.793,1.638,2.183,2.183,0,0,0,.19.914,2.464,2.464,0,0,0,.59.787,6.017,6.017,0,0,0,1,.724,13.735,13.735,0,0,0,1.422.724,7.167,7.167,0,0,0,2.133-1.4A2.377,2.377,0,0,0,56.174,11.254ZM56.4,20a2.8,2.8,0,0,0-.152-.914,2.538,2.538,0,0,0-.546-.876,5.481,5.481,0,0,0-1.054-.863,12.41,12.41,0,0,0-1.676-.889,10.746,10.746,0,0,0-1.454.832,5.011,5.011,0,0,0-.952.838,2.668,2.668,0,0,0-.514.882,3.031,3.031,0,0,0-.152.965,2.016,2.016,0,0,0,.248,1.009,2.271,2.271,0,0,0,.679.743,3.091,3.091,0,0,0,1.028.457,5.225,5.225,0,0,0,1.295.152,5.558,5.558,0,0,0,1.27-.14,3.222,3.222,0,0,0,1.035-.425,2.132,2.132,0,0,0,.692-.724A2.054,2.054,0,0,0,56.4,20Zm32.98-5.23a13.2,13.2,0,0,1-.584,4.17,7.1,7.1,0,0,1-1.727,2.869,6.945,6.945,0,0,1-2.831,1.657,12.955,12.955,0,0,1-3.9.533H78.96V22.07H80.5a10.7,10.7,0,0,0,2.831-.33,5.417,5.417,0,0,0,1.987-.971,4.242,4.242,0,0,0,1.212-1.562,6.357,6.357,0,0,0,.521-2.1l.051-.521a7.581,7.581,0,0,1-1.841.755,8.516,8.516,0,0,1-2.26.286,6.1,6.1,0,0,1-2.209-.368,4.154,4.154,0,0,1-2.526-2.6,5.943,5.943,0,0,1-.317-1.974,5.542,5.542,0,0,1,.419-2.158,5.267,5.267,0,0,1,1.174-1.746A5.545,5.545,0,0,1,81.346,7.61a6.073,6.073,0,0,1,2.323-.432,6.248,6.248,0,0,1,2.279.406A4.429,4.429,0,0,1,87.758,8.9a6.516,6.516,0,0,1,1.193,2.355A12.433,12.433,0,0,1,89.383,14.771ZM83.568,8.994a3.59,3.59,0,0,0-1.314.235,2.9,2.9,0,0,0-1.041.686,3.238,3.238,0,0,0-.692,1.111,4.188,4.188,0,0,0-.254,1.511,4.785,4.785,0,0,0,.184,1.384,2.649,2.649,0,0,0,.571,1.035,2.513,2.513,0,0,0,1,.654,4.123,4.123,0,0,0,1.447.229,5.564,5.564,0,0,0,.971-.089,7.55,7.55,0,0,0,1.885-.6,6.005,6.005,0,0,0,.774-.432,13.032,13.032,0,0,0-.241-2.736,5.019,5.019,0,0,0-.7-1.765,2.569,2.569,0,0,0-1.111-.946A3.732,3.732,0,0,0,83.568,8.994Zm20.819,9.7a4.759,4.759,0,0,1-.533,2.247,5.365,5.365,0,0,1-1.466,1.746,7,7,0,0,1-2.2,1.136,8.95,8.95,0,0,1-2.742.406q-.368,0-.793-.019t-.844-.051q-.419-.032-.819-.07T94.269,24V21.994a10.665,10.665,0,0,0,1.568.241q.882.076,1.784.076a6.418,6.418,0,0,0,1.828-.241,4.084,4.084,0,0,0,1.384-.692,3.036,3.036,0,0,0,.876-1.092,3.316,3.316,0,0,0,.3-1.441,2.47,2.47,0,0,0-1.111-2.253,5.984,5.984,0,0,0-3.193-.7H94.561V7.407H103.5v1.93H96.643V14h1.447a12.356,12.356,0,0,1,2.323.216,5.966,5.966,0,0,1,2.012.755,4.158,4.158,0,0,1,1.422,1.447A4.4,4.4,0,0,1,104.387,18.693Zm15.335,0a4.759,4.759,0,0,1-.533,2.247,5.365,5.365,0,0,1-1.466,1.746,7,7,0,0,1-2.2,1.136,8.95,8.95,0,0,1-2.742.406q-.368,0-.793-.019t-.844-.051q-.419-.032-.819-.07T109.6,24V21.994a10.665,10.665,0,0,0,1.568.241q.882.076,1.784.076a6.418,6.418,0,0,0,1.828-.241,4.084,4.084,0,0,0,1.384-.692,3.036,3.036,0,0,0,.876-1.092,3.316,3.316,0,0,0,.3-1.441,2.47,2.47,0,0,0-1.111-2.253,5.984,5.984,0,0,0-3.193-.7H109.9V7.407h8.938v1.93h-6.855V14h1.447a12.356,12.356,0,0,1,2.323.216,5.966,5.966,0,0,1,2.012.755,4.158,4.158,0,0,1,1.422,1.447A4.4,4.4,0,0,1,119.722,18.693Zm15.665-3.923a13.2,13.2,0,0,1-.584,4.17,7.1,7.1,0,0,1-1.727,2.869,6.945,6.945,0,0,1-2.831,1.657,12.955,12.955,0,0,1-3.9.533h-1.384V22.07H126.5a10.7,10.7,0,0,0,2.831-.33,5.417,5.417,0,0,0,1.987-.971,4.242,4.242,0,0,0,1.212-1.562,6.356,6.356,0,0,0,.521-2.1l.051-.521a7.581,7.581,0,0,1-1.841.755,8.516,8.516,0,0,1-2.26.286,6.1,6.1,0,0,1-2.209-.368,4.154,4.154,0,0,1-2.526-2.6,5.943,5.943,0,0,1-.317-1.974,5.542,5.542,0,0,1,.419-2.158,5.267,5.267,0,0,1,1.174-1.746,5.545,5.545,0,0,1,1.809-1.174,6.073,6.073,0,0,1,2.323-.432,6.248,6.248,0,0,1,2.279.406A4.429,4.429,0,0,1,133.762,8.9a6.516,6.516,0,0,1,1.193,2.355A12.434,12.434,0,0,1,135.387,14.771Zm-5.814-5.776a3.59,3.59,0,0,0-1.314.235,2.9,2.9,0,0,0-1.041.686,3.238,3.238,0,0,0-.692,1.111,4.188,4.188,0,0,0-.254,1.511,4.785,4.785,0,0,0,.184,1.384,2.649,2.649,0,0,0,.571,1.035,2.513,2.513,0,0,0,1,.654,4.123,4.123,0,0,0,1.447.229,5.564,5.564,0,0,0,.971-.089,7.55,7.55,0,0,0,1.885-.6,6.007,6.007,0,0,0,.774-.432,13.031,13.031,0,0,0-.241-2.736,5.019,5.019,0,0,0-.7-1.765,2.57,2.57,0,0,0-1.111-.946A3.732,3.732,0,0,0,129.573,8.994Zm36.154,9.7a4.759,4.759,0,0,1-.533,2.247,5.365,5.365,0,0,1-1.466,1.746,7,7,0,0,1-2.2,1.136,8.95,8.95,0,0,1-2.742.406q-.368,0-.793-.019t-.844-.051q-.419-.032-.819-.07T155.609,24V21.994a10.665,10.665,0,0,0,1.568.241q.882.076,1.784.076a6.418,6.418,0,0,0,1.828-.241,4.084,4.084,0,0,0,1.384-.692,3.036,3.036,0,0,0,.876-1.092,3.316,3.316,0,0,0,.3-1.441,2.47,2.47,0,0,0-1.111-2.253,5.984,5.984,0,0,0-3.193-.7H155.9V7.407h8.938v1.93h-6.855V14h1.447a12.356,12.356,0,0,1,2.323.216,5.966,5.966,0,0,1,2.012.755,4.158,4.158,0,0,1,1.422,1.447A4.4,4.4,0,0,1,165.727,18.693Zm15.665-3.923a13.2,13.2,0,0,1-.584,4.17,7.1,7.1,0,0,1-1.727,2.869,6.945,6.945,0,0,1-2.831,1.657,12.955,12.955,0,0,1-3.9.533h-1.384V22.07h1.536a10.7,10.7,0,0,0,2.831-.33,5.417,5.417,0,0,0,1.987-.971,4.242,4.242,0,0,0,1.212-1.562,6.356,6.356,0,0,0,.521-2.1l.051-.521a7.581,7.581,0,0,1-1.841.755,8.516,8.516,0,0,1-2.26.286,6.1,6.1,0,0,1-2.209-.368,4.154,4.154,0,0,1-2.526-2.6,5.943,5.943,0,0,1-.317-1.974,5.542,5.542,0,0,1,.419-2.158,5.267,5.267,0,0,1,1.174-1.746,5.545,5.545,0,0,1,1.809-1.174,6.073,6.073,0,0,1,2.323-.432,6.248,6.248,0,0,1,2.279.406A4.429,4.429,0,0,1,179.767,8.9a6.516,6.516,0,0,1,1.193,2.355A12.432,12.432,0,0,1,181.392,14.771Zm-5.814-5.776a3.59,3.59,0,0,0-1.314.235,2.9,2.9,0,0,0-1.041.686,3.238,3.238,0,0,0-.692,1.111,4.188,4.188,0,0,0-.254,1.511,4.784,4.784,0,0,0,.184,1.384,2.65,2.65,0,0,0,.571,1.035,2.513,2.513,0,0,0,1,.654,4.123,4.123,0,0,0,1.447.229,5.563,5.563,0,0,0,.971-.089,7.55,7.55,0,0,0,1.885-.6,6,6,0,0,0,.774-.432,13.031,13.031,0,0,0-.241-2.736,5.019,5.019,0,0,0-.7-1.765,2.57,2.57,0,0,0-1.111-.946A3.732,3.732,0,0,0,175.578,8.994ZM196.5,18.96a4.816,4.816,0,0,1-.444,2.05,4.665,4.665,0,0,1-1.333,1.676,6.6,6.6,0,0,1-2.234,1.13,10.728,10.728,0,0,1-3.136.413q-.99,0-1.777-.063T186.1,24V22.02q.787.14,1.663.216t1.79.076a8.818,8.818,0,0,0,2.126-.222,4.014,4.014,0,0,0,1.441-.641,2.467,2.467,0,0,0,.813-1.016,3.406,3.406,0,0,0,.254-1.346,2.275,2.275,0,0,0-.3-1.193,2.535,2.535,0,0,0-.857-.851,4.237,4.237,0,0,0-1.32-.514,7.726,7.726,0,0,0-1.682-.171h-1.892V14.542h1.917a4.467,4.467,0,0,0,1.365-.2,3.067,3.067,0,0,0,1.054-.565,2.44,2.44,0,0,0,.673-.908,3.041,3.041,0,0,0,.235-1.225,2.27,2.27,0,0,0-.812-1.942,3.94,3.94,0,0,0-2.387-.609,9.449,9.449,0,0,0-1.727.165,15.138,15.138,0,0,0-1.9.5V7.826q.432-.152.92-.273t.978-.2q.489-.083.971-.127t.927-.044a8.512,8.512,0,0,1,2.323.286,4.769,4.769,0,0,1,1.676.819,3.429,3.429,0,0,1,1.016,1.295,4.132,4.132,0,0,1,.343,1.714,3.842,3.842,0,0,1-.73,2.387,5.034,5.034,0,0,1-2,1.536,4.521,4.521,0,0,1,1.276.406,4.451,4.451,0,0,1,1.13.781,3.8,3.8,0,0,1,.813,1.124A3.27,3.27,0,0,1,196.5,18.96Zm15.335,0a4.816,4.816,0,0,1-.444,2.05,4.665,4.665,0,0,1-1.333,1.676,6.6,6.6,0,0,1-2.234,1.13,10.728,10.728,0,0,1-3.136.413q-.99,0-1.777-.063T201.436,24V22.02q.787.14,1.663.216t1.79.076a8.818,8.818,0,0,0,2.126-.222,4.014,4.014,0,0,0,1.441-.641,2.467,2.467,0,0,0,.813-1.016,3.406,3.406,0,0,0,.254-1.346,2.275,2.275,0,0,0-.3-1.193,2.535,2.535,0,0,0-.857-.851,4.237,4.237,0,0,0-1.32-.514,7.726,7.726,0,0,0-1.682-.171h-1.892V14.542h1.917a4.467,4.467,0,0,0,1.365-.2,3.067,3.067,0,0,0,1.054-.565,2.44,2.44,0,0,0,.673-.908,3.041,3.041,0,0,0,.235-1.225,2.27,2.27,0,0,0-.812-1.942,3.94,3.94,0,0,0-2.387-.609,9.449,9.449,0,0,0-1.727.165,15.138,15.138,0,0,0-1.9.5V7.826q.432-.152.92-.273t.978-.2q.489-.083.971-.127t.927-.044A8.512,8.512,0,0,1,208,7.464a4.769,4.769,0,0,1,1.676.819,3.429,3.429,0,0,1,1.016,1.295,4.132,4.132,0,0,1,.343,1.714,3.842,3.842,0,0,1-.73,2.387,5.034,5.034,0,0,1-2,1.536,4.521,4.521,0,0,1,1.276.406,4.451,4.451,0,0,1,1.13.781,3.8,3.8,0,0,1,.813,1.124A3.27,3.27,0,0,1,211.833,18.96Zm30.67,0a4.816,4.816,0,0,1-.444,2.05,4.665,4.665,0,0,1-1.333,1.676,6.6,6.6,0,0,1-2.234,1.13,10.728,10.728,0,0,1-3.136.413q-.99,0-1.777-.063T232.106,24V22.02q.787.14,1.663.216t1.79.076a8.818,8.818,0,0,0,2.126-.222,4.014,4.014,0,0,0,1.441-.641,2.467,2.467,0,0,0,.813-1.016,3.406,3.406,0,0,0,.254-1.346,2.275,2.275,0,0,0-.3-1.193,2.535,2.535,0,0,0-.857-.851,4.237,4.237,0,0,0-1.32-.514,7.726,7.726,0,0,0-1.682-.171h-1.892V14.542h1.917a4.467,4.467,0,0,0,1.365-.2,3.067,3.067,0,0,0,1.054-.565,2.44,2.44,0,0,0,.673-.908,3.041,3.041,0,0,0,.235-1.225,2.27,2.27,0,0,0-.812-1.942,3.94,3.94,0,0,0-2.387-.609,9.449,9.449,0,0,0-1.727.165,15.138,15.138,0,0,0-1.9.5V7.826q.432-.152.92-.273t.978-.2q.489-.083.971-.127t.927-.044a8.512,8.512,0,0,1,2.323.286,4.769,4.769,0,0,1,1.676.819,3.429,3.429,0,0,1,1.016,1.295,4.132,4.132,0,0,1,.343,1.714,3.842,3.842,0,0,1-.73,2.387,5.034,5.034,0,0,1-2,1.536,4.521,4.521,0,0,1,1.276.406,4.451,4.451,0,0,1,1.13.781,3.8,3.8,0,0,1,.813,1.124A3.27,3.27,0,0,1,242.5,18.96Zm15.335,0a4.815,4.815,0,0,1-.444,2.05,4.665,4.665,0,0,1-1.333,1.676,6.6,6.6,0,0,1-2.234,1.13,10.728,10.728,0,0,1-3.136.413q-.99,0-1.777-.063T247.441,24V22.02q.787.14,1.663.216t1.79.076a8.818,8.818,0,0,0,2.126-.222,4.014,4.014,0,0,0,1.441-.641,2.467,2.467,0,0,0,.813-1.016,3.406,3.406,0,0,0,.254-1.346,2.275,2.275,0,0,0-.3-1.193,2.535,2.535,0,0,0-.857-.851,4.237,4.237,0,0,0-1.32-.514,7.726,7.726,0,0,0-1.682-.171h-1.892V14.542h1.917a4.467,4.467,0,0,0,1.365-.2,3.067,3.067,0,0,0,1.054-.565,2.44,2.44,0,0,0,.673-.908,3.041,3.041,0,0,0,.235-1.225,2.27,2.27,0,0,0-.812-1.942,3.94,3.94,0,0,0-2.387-.609,9.449,9.449,0,0,0-1.727.165,15.138,15.138,0,0,0-1.9.5V7.826q.432-.152.92-.273t.978-.2q.489-.083.971-.127t.927-.044A8.512,8.512,0,0,1,254,7.464a4.769,4.769,0,0,1,1.676.819A3.429,3.429,0,0,1,256.7,9.578a4.132,4.132,0,0,1,.343,1.714,3.842,3.842,0,0,1-.73,2.387,5.034,5.034,0,0,1-2,1.536,4.521,4.521,0,0,1,1.276.406,4.451,4.451,0,0,1,1.13.781,3.8,3.8,0,0,1,.813,1.124A3.27,3.27,0,0,1,257.838,18.96Zm15.233-.267a4.759,4.759,0,0,1-.533,2.247,5.365,5.365,0,0,1-1.466,1.746,7,7,0,0,1-2.2,1.136,8.95,8.95,0,0,1-2.742.406q-.368,0-.793-.019t-.844-.051q-.419-.032-.819-.07T262.953,24V21.994a10.665,10.665,0,0,0,1.568.241q.882.076,1.784.076a6.418,6.418,0,0,0,1.828-.241,4.085,4.085,0,0,0,1.384-.692,3.036,3.036,0,0,0,.876-1.092,3.316,3.316,0,0,0,.3-1.441,2.47,2.47,0,0,0-1.111-2.253,5.984,5.984,0,0,0-3.193-.7h-3.148V7.407h8.938v1.93h-6.855V14h1.447a12.357,12.357,0,0,1,2.323.216,5.966,5.966,0,0,1,2.012.755,4.158,4.158,0,0,1,1.422,1.447A4.4,4.4,0,0,1,273.072,18.693Zm15.335,0a4.759,4.759,0,0,1-.533,2.247,5.365,5.365,0,0,1-1.466,1.746,7,7,0,0,1-2.2,1.136,8.95,8.95,0,0,1-2.742.406q-.368,0-.793-.019t-.844-.051q-.419-.032-.819-.07T278.288,24V21.994a10.665,10.665,0,0,0,1.568.241q.882.076,1.784.076a6.418,6.418,0,0,0,1.828-.241,4.085,4.085,0,0,0,1.384-.692,3.036,3.036,0,0,0,.876-1.092,3.316,3.316,0,0,0,.3-1.441,2.47,2.47,0,0,0-1.111-2.253,5.984,5.984,0,0,0-3.193-.7H278.58V7.407h8.938v1.93h-6.855V14h1.447a12.357,12.357,0,0,1,2.323.216,5.966,5.966,0,0,1,2.012.755,4.158,4.158,0,0,1,1.422,1.447A4.4,4.4,0,0,1,288.406,18.693Z" transform="translate(-0.17 -7.18)" fill="#fff" opacity="0.89"/></g><g transform="matrix(1, 0, 0, 1, 1043.17, 571.18)" filter="url(#c)"><path d="M12.632,23.378a10.813,10.813,0,0,1-4.177.825,6.881,6.881,0,0,1-5.4-2.1Q1.168,20,1.168,15.888a11.7,11.7,0,0,1,.521-3.605A7.838,7.838,0,0,1,3.174,9.546,6.54,6.54,0,0,1,5.51,7.813,7.485,7.485,0,0,1,8.582,7.2a11.012,11.012,0,0,1,2.146.2,8.986,8.986,0,0,1,1.9.6v2.222a8.421,8.421,0,0,0-1.866-.755,8.075,8.075,0,0,0-2.107-.26,4.971,4.971,0,0,0-2.114.438,4.373,4.373,0,0,0-1.606,1.27,5.943,5.943,0,0,0-1.016,2.031,9.637,9.637,0,0,0-.355,2.736,7.677,7.677,0,0,0,1.308,4.862,4.614,4.614,0,0,0,3.834,1.638,8.3,8.3,0,0,0,2.044-.248,9.527,9.527,0,0,0,1.879-.692ZM29.5,24H27.04l-1.155-3.618H18.978L17.811,24H15.462l5.51-16.593h3.1Zm-4.266-5.637L22.432,9.489l-2.806,8.874ZM44.013,24H41.461l-2.476-5.307a5.868,5.868,0,0,0-.571-1.009,2.713,2.713,0,0,0-.628-.635,2.238,2.238,0,0,0-.736-.336,3.64,3.64,0,0,0-.9-.1H35.088V24h-2.26V7.407h4.443a8.592,8.592,0,0,1,2.488.317,4.689,4.689,0,0,1,1.708.889,3.4,3.4,0,0,1,.978,1.377,4.918,4.918,0,0,1,.311,1.784,4.646,4.646,0,0,1-.229,1.466,4.021,4.021,0,0,1-.679,1.257,4.321,4.321,0,0,1-1.117.978,5.106,5.106,0,0,1-1.53.616,2.6,2.6,0,0,1,1.187.844,9.121,9.121,0,0,1,1,1.606ZM40.394,11.965a2.39,2.39,0,0,0-.832-1.993,3.683,3.683,0,0,0-2.342-.66H35.088V14.8h1.828a5.219,5.219,0,0,0,1.441-.184,3.078,3.078,0,0,0,1.092-.546,2.473,2.473,0,0,0,.7-.889A2.82,2.82,0,0,0,40.394,11.965ZM59.373,15.52a13.732,13.732,0,0,1-.184,2.285,8.773,8.773,0,0,1-.59,2.031,6.854,6.854,0,0,1-1.054,1.708,5.982,5.982,0,0,1-1.587,1.314,8.07,8.07,0,0,1-2.184.844,12.188,12.188,0,0,1-2.831.3H47.389V7.407h4.278q3.885,0,5.8,2T59.373,15.52ZM57,15.685a11.574,11.574,0,0,0-.33-2.983,4.751,4.751,0,0,0-1-1.968,3.849,3.849,0,0,0-1.688-1.085,7.607,7.607,0,0,0-2.387-.336H49.648V22.045h1.688Q57,22.045,57,15.685ZM74.238,24h-2.26V16.383h-6.97V24h-2.26V7.407h2.26v7.021h6.97V7.407h2.26Zm16.033-8.4a12.569,12.569,0,0,1-.527,3.859,7.878,7.878,0,0,1-1.422,2.685,5.618,5.618,0,0,1-2.095,1.574,6.756,6.756,0,0,1-5.319-.063,5.166,5.166,0,0,1-1.968-1.669,7.614,7.614,0,0,1-1.162-2.66,15.016,15.016,0,0,1-.381-3.536,12.615,12.615,0,0,1,.521-3.834,7.8,7.8,0,0,1,1.416-2.685,5.631,5.631,0,0,1,2.088-1.574,6.317,6.317,0,0,1,2.526-.514,6.244,6.244,0,0,1,2.787.584A5.293,5.293,0,0,1,88.71,9.432a7.559,7.559,0,0,1,1.174,2.647A14.642,14.642,0,0,1,90.271,15.6Zm-2.349.165a14.866,14.866,0,0,0-.222-2.672A6.663,6.663,0,0,0,86.983,11a3.693,3.693,0,0,0-1.276-1.358,3.518,3.518,0,0,0-1.885-.482,3.22,3.22,0,0,0-1.834.514,4,4,0,0,0-1.263,1.4,7.094,7.094,0,0,0-.736,2.069,12.639,12.639,0,0,0-.241,2.52,14.54,14.54,0,0,0,.229,2.685,6.8,6.8,0,0,0,.717,2.082,3.676,3.676,0,0,0,1.263,1.352,3.46,3.46,0,0,0,1.866.482,3.251,3.251,0,0,0,1.841-.514,4.031,4.031,0,0,0,1.276-1.4,6.979,6.979,0,0,0,.743-2.063A12.612,12.612,0,0,0,87.923,15.761ZM104.514,24H94.968V7.407h2.3V22.07h7.249Zm16.2-8.48a13.732,13.732,0,0,1-.184,2.285,8.772,8.772,0,0,1-.59,2.031,6.854,6.854,0,0,1-1.054,1.708,5.982,5.982,0,0,1-1.587,1.314,8.07,8.07,0,0,1-2.184.844,12.188,12.188,0,0,1-2.831.3h-3.555V7.407h4.278q3.885,0,5.8,2T120.713,15.52Zm-2.374.165a11.574,11.574,0,0,0-.33-2.983,4.751,4.751,0,0,0-1-1.968,3.849,3.849,0,0,0-1.688-1.085,7.607,7.607,0,0,0-2.387-.336h-1.942V22.045h1.688Q118.339,22.045,118.339,15.685ZM134.664,24h-9.433V7.407h9.433v1.9h-7.173v5.142h6.894v1.9h-6.894V22.07h7.173Zm16.693,0h-2.552l-2.476-5.307a5.868,5.868,0,0,0-.571-1.009,2.713,2.713,0,0,0-.628-.635,2.238,2.238,0,0,0-.736-.336,3.64,3.64,0,0,0-.9-.1h-1.066V24h-2.26V7.407h4.443a8.592,8.592,0,0,1,2.488.317,4.689,4.689,0,0,1,1.708.889,3.4,3.4,0,0,1,.978,1.377,4.918,4.918,0,0,1,.311,1.784,4.646,4.646,0,0,1-.229,1.466,4.021,4.021,0,0,1-.679,1.257,4.322,4.322,0,0,1-1.117.978,5.106,5.106,0,0,1-1.53.616,2.6,2.6,0,0,1,1.187.844,9.121,9.121,0,0,1,1,1.606Zm-3.618-12.035a2.39,2.39,0,0,0-.832-1.993,3.683,3.683,0,0,0-2.342-.66h-2.133V14.8h1.828a5.219,5.219,0,0,0,1.441-.184,3.078,3.078,0,0,0,1.092-.546,2.473,2.473,0,0,0,.7-.889A2.82,2.82,0,0,0,147.739,11.965ZM181.481,24h-2.945L173.7,13.653l-1.4-3.326V24h-2.107V7.407H173.1l4.608,9.8,1.663,3.8V7.407h2.107Zm16.706,0h-2.463l-1.155-3.618h-6.906L186.495,24h-2.349l5.51-16.593h3.1Zm-4.266-5.637-2.806-8.874-2.806,8.874ZM213.027,24h-2.209l-.33-10.347-.14-3.974-.774,2.311-2.45,6.6h-1.562l-2.336-6.348-.774-2.564-.051,4.151L202.109,24h-2.133l.813-16.593h2.679l2.234,6.246.724,2.107.7-2.107,2.349-6.246h2.755Zm13.646,0h-9.433V7.407h9.433v1.9H219.5v5.142h6.894v1.9H219.5V22.07h7.173Z" transform="translate(-1.17 68.82)" fill="#fff" opacity="0.89"/></g></g></svg>